<?xml version="1.0" standalone="no"?>
<!DOCTYPE svg PUBLIC "-//W3C//DTD SVG 20010904//EN"
 "http://www.w3.org/TR/2001/REC-SVG-20010904/DTD/svg10.dtd">
<svg version="1.0" xmlns="http://www.w3.org/2000/svg"
 width="818.000000pt" height="818.000000pt" viewBox="0 0 818.000000 818.000000"
 preserveAspectRatio="xMidYMid meet">
<metadata>
Created by potrace 1.14, written by Peter Selinger 2001-2017
</metadata>
<g transform="translate(0.000000,818.000000) scale(0.100000,-0.100000)"
fill="#000000" stroke="none">
<path d="M213 7386 c-83 -26 -141 -76 -185 -158 l-23 -43 -2 -3085 -2 -3085
21 -54 c28 -74 97 -142 172 -170 l57 -21 3848 0 3848 0 54 26 c69 33 132 101
158 167 20 52 20 78 20 3126 1 2254 -2 3078 -10 3088 -6 7 -9 13 -5 13 14 0
-39 87 -73 121 -36 36 -121 86 -121 72 0 -4 -5 -2 -12 5 -18 18 -7686 16
-7745 -2z m247 -91 c5 -3 11 -1 15 5 4 6 11 7 17 4 10 -6 80 -7 143 -1 17 1
40 -1 52 -5 12 -4 25 -3 28 3 4 5 13 6 22 1 8 -5 32 -6 52 -2 21 4 47 3 59 -1
12 -5 24 -4 27 1 4 7 13 7 24 0 10 -5 20 -7 23 -5 2 3 33 5 69 5 35 0 89 0
119 0 30 0 69 1 85 3 17 1 40 -1 52 -5 12 -4 25 -3 28 3 4 5 11 6 17 3 5 -4
34 -6 64 -5 72 1 154 2 210 0 25 0 48 2 51 5 3 2 16 1 29 -4 14 -6 26 -6 29 1
4 5 13 6 22 1 8 -5 32 -6 52 -2 21 4 47 3 59 -1 12 -5 24 -4 27 2 4 5 11 6 17
3 5 -4 34 -6 64 -5 107 3 119 3 152 -2 17 -2 32 -1 32 4 0 5 6 6 13 3 22 -8
98 -10 103 -3 2 4 17 4 33 -1 16 -4 32 -6 35 -3 9 9 58 9 83 1 12 -4 25 -3 28
3 4 5 11 6 17 3 5 -4 34 -6 64 -5 61 1 129 2 224 1 36 0 79 1 95 3 17 1 40 -1
52 -5 12 -4 25 -3 28 3 4 5 11 6 17 3 5 -4 34 -6 64 -5 30 0 80 1 112 1 31 0
86 1 122 1 36 0 70 0 75 0 49 -1 146 0 170 2 17 1 40 -1 52 -5 12 -4 25 -3 28
3 4 5 11 6 17 3 5 -4 36 -6 67 -5 31 1 88 1 126 1 69 -1 134 0 198 1 17 0 47
-1 65 -4 17 -2 32 -1 32 4 0 5 6 6 13 3 22 -8 98 -10 103 -3 2 4 17 4 33 -1
16 -4 32 -6 35 -3 9 9 58 9 83 1 12 -4 25 -3 28 3 4 5 11 6 17 3 10 -6 80 -7
143 -1 17 1 40 -1 52 -5 12 -4 25 -3 28 3 4 5 13 6 22 1 8 -5 32 -6 52 -2 21
4 47 3 59 -1 12 -5 24 -4 27 1 4 7 13 7 24 0 10 -5 20 -7 23 -5 2 3 33 5 69 5
35 0 89 0 119 0 30 0 69 1 85 3 17 1 40 -1 52 -5 12 -4 25 -3 28 3 4 5 11 6
17 3 5 -4 34 -6 64 -5 72 1 154 2 210 0 25 0 48 2 51 5 3 2 16 1 29 -4 14 -6
26 -6 29 1 4 5 13 6 22 1 8 -5 32 -6 52 -2 21 4 47 3 59 -1 12 -5 24 -4 27 2
4 5 11 6 17 3 5 -4 34 -6 64 -5 107 3 119 3 152 -2 17 -2 32 -1 32 4 0 5 6 6
13 3 22 -8 98 -10 103 -3 2 4 17 4 33 -1 16 -4 32 -6 35 -3 9 9 58 9 83 1 12
-4 25 -3 28 3 4 5 11 6 17 3 5 -4 34 -6 64 -5 61 1 129 2 224 1 36 0 79 1 95
3 17 1 40 -1 52 -5 12 -4 25 -3 28 3 4 5 11 6 17 3 5 -4 34 -6 64 -5 30 0 80
1 112 1 31 0 86 1 122 1 36 0 70 0 75 0 49 -1 146 0 170 2 17 1 40 -1 52 -5
12 -4 25 -3 28 3 4 5 11 6 17 3 5 -4 36 -6 67 -5 31 1 88 1 126 1 104 -1 156
0 190 3 17 1 39 0 50 -4 11 -3 29 -3 40 1 11 4 24 5 30 2 5 -3 21 -7 35 -8 82
-5 158 -83 165 -170 3 -25 6 -48 8 -52 3 -4 1 -16 -3 -27 -4 -11 -4 -30 1 -42
5 -13 4 -25 -1 -28 -5 -3 -6 -16 -2 -28 4 -12 6 -37 5 -54 -6 -72 -5 -131 1
-141 3 -6 2 -13 -4 -17 -6 -4 -8 -11 -5 -16 9 -14 12 -88 4 -101 -4 -6 -3 -24
1 -39 5 -16 6 -29 2 -29 -4 0 -7 -27 -7 -60 0 -33 4 -60 9 -60 5 0 3 -6 -3
-13 -6 -8 -8 -17 -5 -20 4 -3 6 -25 5 -49 -3 -127 -3 -147 3 -157 4 -5 2 -12
-3 -16 -6 -3 -7 -15 -2 -28 4 -12 4 -35 1 -52 -3 -16 -3 -40 1 -52 5 -12 4
-25 -1 -28 -5 -3 -6 -16 -1 -28 4 -12 5 -35 1 -52 -3 -16 -3 -42 1 -57 5 -17
4 -28 -2 -28 -6 0 -8 -4 -5 -8 5 -9 7 -67 5 -148 -1 -29 1 -56 5 -62 3 -6 2
-13 -3 -17 -6 -3 -7 -16 -3 -28 4 -12 6 -38 5 -57 -6 -73 -5 -139 2 -149 3 -6
3 -11 -2 -11 -9 0 -8 -112 1 -135 3 -8 1 -17 -4 -20 -5 -3 -6 -16 -1 -28 4
-12 4 -35 1 -52 -3 -16 -3 -40 1 -52 5 -12 4 -25 -1 -28 -5 -3 -6 -16 -2 -28
4 -12 6 -37 5 -54 -6 -72 -5 -131 1 -141 3 -6 2 -13 -4 -17 -6 -4 -8 -11 -5
-16 9 -14 12 -88 4 -101 -4 -6 -3 -24 1 -39 5 -16 6 -29 2 -29 -4 0 -7 -27 -7
-60 0 -33 4 -60 9 -60 5 0 3 -6 -3 -13 -6 -8 -8 -17 -5 -20 4 -3 6 -25 5 -49
-3 -127 -3 -147 3 -157 4 -5 2 -12 -3 -16 -6 -3 -7 -15 -2 -28 4 -12 4 -35 1
-52 -3 -16 -3 -40 1 -52 5 -12 4 -25 -1 -28 -5 -3 -6 -16 -1 -28 4 -12 5 -35
1 -52 -3 -16 -3 -42 1 -57 5 -17 4 -28 -2 -28 -6 0 -8 -4 -5 -8 5 -9 7 -67 5
-148 -1 -29 1 -56 5 -62 3 -6 2 -13 -3 -17 -6 -3 -7 -16 -3 -28 4 -12 6 -38 5
-57 -6 -73 -5 -139 2 -149 3 -6 3 -11 -2 -11 -9 0 -8 -112 1 -135 3 -8 1 -17
-4 -20 -5 -3 -6 -16 -1 -28 4 -12 4 -35 1 -52 -3 -16 -3 -40 1 -52 5 -12 4
-25 -1 -28 -5 -3 -6 -16 -1 -28 4 -12 5 -35 1 -52 -3 -16 -3 -42 1 -57 5 -17
4 -28 -2 -28 -6 0 -8 -4 -5 -8 5 -9 7 -67 5 -148 -1 -29 1 -56 5 -62 3 -6 2
-13 -3 -17 -6 -3 -7 -16 -3 -28 4 -12 6 -38 5 -57 -6 -73 -5 -139 2 -149 3 -6
3 -11 -2 -11 -9 0 -8 -123 1 -146 3 -8 1 -14 -5 -14 -6 0 -8 -4 -5 -8 5 -9 7
-67 5 -148 -1 -29 1 -56 5 -62 3 -6 2 -13 -3 -17 -6 -3 -7 -16 -3 -28 4 -12 6
-38 5 -57 -6 -73 -5 -139 2 -149 3 -6 3 -11 -2 -11 -9 0 -8 -123 1 -146 3 -8
1 -14 -5 -14 -6 0 -8 -4 -5 -8 5 -9 7 -67 5 -148 -1 -29 1 -56 5 -62 3 -6 2
-13 -3 -17 -6 -3 -7 -16 -3 -28 4 -12 6 -38 5 -57 -6 -73 -5 -139 2 -149 3 -6
3 -11 -2 -11 -4 0 -8 -46 -8 -103 0 -97 -1 -104 -30 -146 -18 -27 -48 -54 -75
-67 l-45 -23 -3826 -1 c-2894 0 -3834 3 -3860 12 -43 15 -92 51 -107 80 -19
38 -35 82 -33 92 1 5 1 113 1 240 -1 127 -1 238 -1 246 0 8 0 116 0 240 0 124
0 232 0 240 0 8 0 116 0 240 0 124 0 232 0 240 0 8 0 116 0 240 0 124 0 232 0
240 0 8 0 116 0 240 0 124 0 232 0 240 0 8 0 116 0 240 0 124 0 232 0 240 0 8
0 116 0 240 0 124 0 232 0 240 0 8 0 116 0 240 0 124 0 232 0 240 0 8 0 116 0
240 0 124 0 232 0 240 0 8 0 116 0 240 0 124 0 232 0 240 0 8 0 116 0 240 0
124 0 232 0 240 0 8 0 116 0 240 0 220 0 237 2 263 1 6 1 64 0 127 -2 146 4
194 28 234 39 62 102 93 189 93 29 0 55 2 57 5 6 6 73 0 85 -7z"/>
<path d="M1125 5659 c-4 -5 -6 -227 -6 -492 1 -265 1 -495 0 -512 -4 -145 -2
-525 3 -525 4 0 5 -7 1 -15 -8 -23 -9 -305 -1 -305 4 0 5 -7 1 -15 -8 -23 -9
-305 -1 -305 4 0 5 -7 1 -15 -9 -24 -9 -305 0 -305 5 0 5 -5 2 -10 -5 -8 -8
-275 -5 -400 1 -8 0 -60 0 -115 -1 -55 -1 -108 -1 -117 1 -17 27 -18 406 -18
l405 0 2 940 3 940 73 -128 c40 -70 79 -138 87 -152 20 -33 151 -263 183 -320
13 -25 40 -71 58 -103 19 -32 34 -62 34 -68 0 -5 3 -9 8 -9 4 0 13 -12 19 -27
7 -16 23 -44 35 -63 12 -19 22 -37 23 -40 1 -5 74 -134 109 -190 12 -19 27
-46 34 -60 7 -14 102 -180 210 -370 l198 -345 429 0 429 0 1 1570 0 1570 -28
2 c-15 2 -39 4 -54 6 -16 2 -45 0 -66 -4 -20 -3 -40 -3 -42 1 -3 4 -19 5 -37
1 -18 -4 -53 -4 -78 0 -25 4 -46 4 -48 0 -1 -4 -22 -5 -45 -2 -23 4 -55 4 -72
1 -16 -3 -50 -3 -75 1 -25 4 -47 3 -48 -2 -2 -5 -7 -7 -11 -5 -8 5 -52 7 -146
6 l-61 -1 1 -938 c0 -517 -3 -937 -7 -935 -9 6 -138 235 -138 245 0 5 -4 9
-10 9 -5 0 -10 4 -10 9 0 5 -43 85 -97 178 -53 92 -106 186 -119 208 -12 22
-72 127 -133 234 -61 107 -111 198 -111 203 0 4 -4 8 -10 8 -5 0 -10 4 -10 9
0 5 -68 127 -150 271 -83 144 -150 266 -150 270 0 5 -3 10 -7 12 -5 2 -17 19
-27 38 -10 19 -39 69 -63 111 l-45 76 -36 -7 c-21 -3 -48 -4 -61 0 -13 3 -50
3 -81 0 -31 -3 -67 -3 -80 0 -13 3 -49 3 -80 0 -31 -3 -67 -3 -80 0 -13 3 -49
3 -80 0 -31 -3 -67 -3 -80 0 -13 3 -49 3 -81 0 -31 -3 -68 -3 -81 1 -13 3 -32
3 -43 -1 -11 -4 -28 -4 -37 1 -10 6 -19 5 -23 -2z"/>
<path d="M4470 5662 c0 -5 -12 -7 -26 -4 -14 2 -29 0 -33 -6 -3 -5 -6 -714 -6
-1574 l1 -1563 404 0 405 0 0 445 1 445 79 2 c44 2 328 4 630 6 303 2 569 6
591 10 225 30 404 118 507 248 60 77 125 220 143 319 25 135 28 201 28 545 0
304 -6 461 -19 498 -2 6 -7 23 -9 37 -17 89 -40 151 -87 240 -92 171 -276 288
-517 330 -55 10 -231 23 -272 21 -54 -3 -105 -1 -121 4 -10 4 -19 2 -19 -3 0
-5 -19 -6 -42 -3 -24 4 -56 4 -73 1 -16 -3 -50 -3 -75 1 -25 4 -46 4 -48 0 -1
-4 -22 -5 -45 -2 -23 4 -55 4 -72 1 -16 -3 -50 -3 -75 1 -25 4 -46 4 -48 0 -1
-4 -22 -5 -45 -2 -23 4 -55 4 -72 1 -16 -3 -50 -3 -75 1 -25 4 -46 4 -48 0 -1
-4 -22 -5 -45 -2 -23 4 -55 4 -72 1 -16 -3 -50 -3 -75 1 -25 4 -46 4 -48 0 -1
-4 -22 -5 -45 -2 -23 4 -55 4 -72 1 -16 -3 -50 -3 -75 1 -25 4 -46 4 -48 0 -1
-4 -22 -5 -45 -2 -23 4 -55 4 -72 1 -16 -3 -50 -3 -75 1 -25 4 -47 3 -48 -2
-2 -5 -8 -7 -13 -4 -4 3 -34 5 -66 5 -91 -1 -127 0 -145 6 -10 3 -18 1 -18 -4z
m1745 -645 c72 -22 112 -54 142 -115 l28 -57 -1 -310 c-1 -293 -2 -313 -22
-357 -26 -58 -69 -98 -130 -120 -42 -15 -103 -17 -532 -18 l-485 0 1 482 c1
266 2 489 3 496 1 18 937 17 996 -1z"/>
</g>
</svg>
